<?xml version="1.0" standalone="no"?>
<!DOCTYPE svg PUBLIC "-//W3C//DTD SVG 20010904//EN"
 "http://www.w3.org/TR/2001/REC-SVG-20010904/DTD/svg10.dtd">
<svg version="1.0" xmlns="http://www.w3.org/2000/svg"
 width="72.000000pt" height="72.000000pt" viewBox="0 0 72.000000 72.000000"
 preserveAspectRatio="xMidYMid meet">
<metadata>
Created by potrace 1.14, written by Peter Selinger 2001-2017
</metadata>
<g transform="translate(0.000000,72.000000) scale(0.100000,-0.100000)"
fill="#000000" stroke="none">
<path d="M650 698 c0 -50 -87 -114 -109 -80 -8 12 -91 54 -91 46 0 -3 -10 0
-22 8 -13 8 -43 15 -67 17 -25 1 -48 4 -53 7 -4 3 -8 1 -8 -4 0 -6 -6 -10 -12
-9 -30 1 -49 -4 -45 -10 3 -5 -6 -9 -20 -9 -33 -3 -75 -42 -64 -62 8 -14 0
-27 -44 -76 -28 -31 -46 -71 -42 -92 2 -13 0 -24 -4 -24 -5 0 -9 -7 -9 -16 0
-9 -5 -12 -12 -8 -7 4 -10 4 -6 0 8 -10 -11 -66 -23 -66 -16 0 -10 -110 6
-127 14 -14 14 -17 -2 -30 -10 -8 -11 -11 -3 -7 12 6 13 5 3 -7 -10 -12 -10
-18 0 -29 9 -10 9 -11 -1 -6 -9 5 -12 -6 -12 -44 0 -32 4 -49 10 -45 6 3 10 2
10 -4 0 -5 -6 -12 -12 -14 -7 -3 21 -6 62 -6 46 0 70 3 61 8 -9 6 -1 10 25 13
26 3 42 1 47 -9 5 -7 25 -13 47 -13 42 0 72 8 66 19 -2 3 9 7 25 8 15 1 40 10
54 19 13 9 31 14 39 11 8 -3 30 3 49 13 19 10 38 16 41 13 3 -4 6 1 6 10 0 10
4 17 9 17 4 0 20 11 35 25 14 13 26 20 26 15 0 -6 5 -10 11 -10 5 0 8 4 5 8
-3 4 8 7 25 6 16 -1 27 2 24 6 -3 5 -1 11 5 15 6 4 8 11 5 16 -4 5 1 12 9 15
13 5 16 26 16 116 0 64 -4 107 -9 104 -5 -4 -12 6 -15 22 -4 15 -19 41 -34 57
-34 38 -34 53 0 87 15 14 24 29 21 32 -4 3 -1 6 6 6 7 0 11 7 8 14 -4 10 -1
13 9 9 11 -4 14 4 14 31 0 33 -2 36 -30 36 -24 0 -30 -4 -30 -22z m-223 -79
c8 -7 25 -15 36 -16 12 -2 30 -12 41 -22 15 -15 16 -22 7 -40 -7 -12 -16 -19
-21 -16 -5 3 -11 1 -14 -3 -8 -14 -133 -6 -151 9 -9 8 -28 24 -41 36 -13 12
-24 17 -24 10 0 -8 -4 -7 -9 2 -14 22 5 49 36 53 53 6 125 -1 140 -13z m-132
-166 c-5 -10 -9 -22 -9 -27 -2 -16 -45 -26 -58 -13 -7 7 -24 13 -38 15 -14 2
-30 10 -36 18 -6 7 -13 13 -15 11 -2 -1 0 3 6 8 5 6 11 16 12 23 4 19 43 53
53 47 6 -4 10 -2 10 3 0 5 19 -7 41 -28 33 -30 40 -42 34 -57z m289 53 c-3 -7
2 -16 10 -19 9 -4 16 -13 16 -21 0 -8 4 -16 9 -18 5 -1 11 -10 13 -18 2 -8 7
-18 11 -21 13 -9 12 -158 0 -170 -13 -13 -53 9 -53 29 0 7 -4 10 -10 7 -5 -3
-10 1 -10 9 0 9 -8 24 -17 34 -26 25 -25 122 1 151 11 12 16 21 11 21 -4 0 -2
7 5 15 16 19 21 19 14 1z m-109 -101 c0 -69 -22 -90 -91 -90 l-49 0 -1 50 c-2
70 20 93 90 94 l52 0 -1 -54z m-290 -63 c-2 -9 -4 -21 -4 -25 -1 -5 -7 -5 -13
-1 -7 4 -10 4 -6 0 9 -11 -12 -67 -23 -60 -5 3 -9 0 -9 -7 0 -8 -4 -9 -13 0
-10 8 -17 7 -26 -2 -7 -6 -12 -7 -11 -2 2 6 2 12 0 15 -8 21 -8 50 -1 50 5 0
15 15 21 34 6 19 19 36 28 38 24 6 61 -20 57 -40z m89 -42 c-4 -34 1 -38 49
-42 46 -3 47 -21 3 -42 -28 -13 -60 -15 -107 -7 -9 1 -4 64 6 81 5 9 4 11 -3
6 -8 -5 -10 -2 -6 8 3 9 10 14 14 11 5 -3 12 4 15 15 10 31 33 7 29 -30z m190
-22 c-6 -10 -3 -9 8 0 15 12 22 8 56 -28 27 -29 38 -48 34 -62 -2 -10 -6 -17
-9 -14 -2 2 -16 -7 -30 -20 -14 -13 -30 -22 -36 -21 -22 4 -40 29 -41 55 -1
15 -6 26 -12 25 -18 -3 -11 27 11 53 22 26 30 31 19 12z m-314 -90 c0 -17 2
-24 12 -36 6 -7 17 -11 25 -8 14 6 15 4 18 -37 1 -15 0 -25 -3 -22 -3 3 -12
-1 -20 -8 -13 -10 -14 -9 -7 3 7 12 5 12 -11 -1 -10 -9 -34 -15 -53 -15 -32 1
-34 3 -36 39 -1 25 3 36 10 33 8 -3 10 5 7 21 -3 15 1 29 8 33 17 10 50 9 50
-2z m248 -59 c-5 -3 -10 -10 -10 -15 -1 -19 -11 -34 -19 -29 -5 3 -21 0 -36
-8 -15 -7 -34 -12 -40 -11 -7 1 -17 2 -22 3 -5 0 -7 11 -4 24 4 18 3 19 -6 7
-7 -9 -11 -10 -11 -3 0 6 5 15 10 18 6 4 8 10 5 14 -2 5 7 13 21 20 14 6 23 7
19 1 -3 -6 1 -7 9 -4 9 3 14 10 11 14 -3 5 6 7 20 5 14 -1 25 3 25 9 0 6 9 0
20 -14 11 -15 15 -27 8 -31z"/>
</g>
</svg>
